<svg width="49" height="49" viewBox="0 0 49 49" fill="none" xmlns="http://www.w3.org/2000/svg">
<path d="M29.6042 6.7684C31.5442 6.78838 33.1242 7.78727 34.0442 9.58527C34.2817 10.0597 34.613 10.7527 34.9599 11.4837L35.3786 12.3677L35.5842 12.8017L35.7842 13.2412C35.8642 13.3811 36.0042 13.4809 36.1842 13.4809C40.9842 13.4809 44.9042 17.3966 44.9042 22.1913V34.0581C44.9042 38.8528 40.9842 42.7684 36.1842 42.7684H13.6242C8.80424 42.7684 4.90424 38.8528 4.90424 34.0581V22.1913C4.90424 17.3966 8.80424 13.4809 13.6242 13.4809C13.7842 13.4809 13.9442 13.401 14.0042 13.2412L14.1242 13.0015C14.6842 11.8228 15.3642 10.3844 15.7642 9.58527C16.6842 7.78727 18.2442 6.78838 20.1842 6.7684H29.6042ZM24.9042 19.5742C22.8042 19.5742 20.8242 20.3933 19.3242 21.8916C17.8442 23.3899 17.0242 25.3478 17.0442 27.4254C17.0442 29.5231 17.8642 31.4809 19.3442 32.9793C20.8442 34.4576 22.8042 35.2767 24.9042 35.2767C27.0642 35.2767 29.0242 34.3977 30.4442 32.9793C31.8642 31.5609 32.7442 29.603 32.7642 27.4254C32.7642 25.3478 31.9442 23.37 30.4642 21.8716C28.9842 20.3933 27.0042 19.5742 24.9042 19.5742ZM24.9042 22.5708C26.2042 22.5708 27.4242 23.0703 28.3442 23.9893C29.2642 24.9082 29.7642 26.1269 29.7642 27.4254C29.7442 30.1025 27.5842 32.2801 24.9042 32.2801C23.6042 32.2801 22.3842 31.7806 21.4642 30.8616C20.5442 29.9427 20.0442 28.724 20.0442 27.4254V27.4055C20.0242 26.1469 20.5242 24.9282 21.4442 24.0092C22.3842 23.0703 23.6042 22.5708 24.9042 22.5708ZM36.1242 19.0947C35.1242 19.0947 34.3242 19.9138 34.3242 20.9127C34.3242 21.9116 35.1242 22.7107 36.1242 22.7107C37.1242 22.7107 37.9442 21.9116 37.9442 20.9127C37.9442 19.9138 37.1242 19.0947 36.1242 19.0947Z" fill="black"/>
</svg>
