<svg width="39" height="39" viewBox="0 0 39 39" fill="none" xmlns="http://www.w3.org/2000/svg">
<g id="fast" clip-path="url(#clip0)">
<path id="Vector" d="M10.5625 30.875H7.3125C6.864 30.875 6.5 30.511 6.5 30.0625C6.5 29.614 6.864 29.25 7.3125 29.25H10.5625C11.011 29.25 11.375 29.614 11.375 30.0625C11.375 30.511 11.011 30.875 10.5625 30.875Z" fill="black"/>
<path id="Vector_2" d="M36.9687 30.875H34.9374C34.4889 30.875 34.1249 30.511 34.1249 30.0625C34.1249 29.614 34.4889 29.25 34.9374 29.25H36.2943L37.3895 23.413C37.3749 20.4262 34.8237 17.875 31.6874 17.875H26.3525L23.7672 29.25H28.4374C28.8859 29.25 29.2499 29.614 29.2499 30.0625C29.2499 30.511 28.8859 30.875 28.4374 30.875H22.7499C22.5029 30.875 22.2689 30.7629 22.1145 30.5695C21.9602 30.3778 21.9017 30.1242 21.9569 29.8837L24.9112 16.8838C24.9957 16.5116 25.3239 16.25 25.7042 16.25H31.6874C35.719 16.25 38.9999 19.5309 38.9999 23.5625L37.7665 30.212C37.695 30.5971 37.3603 30.875 36.9687 30.875Z" fill="black"/>
<path id="Vector_3" d="M31.6875 34.125C29.4483 34.125 27.625 32.3033 27.625 30.0625C27.625 27.8216 29.4483 26 31.6875 26C33.9268 26 35.75 27.8216 35.75 30.0625C35.75 32.3033 33.9268 34.125 31.6875 34.125ZM31.6875 27.625C30.3436 27.625 29.25 28.7186 29.25 30.0625C29.25 31.4063 30.3436 32.5 31.6875 32.5C33.0314 32.5 34.125 31.4063 34.125 30.0625C34.125 28.7186 33.0314 27.625 31.6875 27.625Z" fill="black"/>
<path id="Vector_4" d="M13.8125 34.125C11.5732 34.125 9.75 32.3033 9.75 30.0625C9.75 27.8216 11.5732 26 13.8125 26C16.0518 26 17.875 27.8216 17.875 30.0625C17.875 32.3033 16.0518 34.125 13.8125 34.125ZM13.8125 27.625C12.4686 27.625 11.375 28.7186 11.375 30.0625C11.375 31.4063 12.4686 32.5 13.8125 32.5C15.1564 32.5 16.25 31.4063 16.25 30.0625C16.25 28.7186 15.1564 27.625 13.8125 27.625Z" fill="black"/>
<path id="Vector_5" d="M10.5625 16.25H4.0625C3.614 16.25 3.25 15.886 3.25 15.4375C3.25 14.989 3.614 14.625 4.0625 14.625H10.5625C11.011 14.625 11.375 14.989 11.375 15.4375C11.375 15.886 11.011 16.25 10.5625 16.25Z" fill="black"/>
<path id="Vector_6" d="M10.5625 21.125H2.4375C1.989 21.125 1.625 20.761 1.625 20.3125C1.625 19.864 1.989 19.5 2.4375 19.5H10.5625C11.011 19.5 11.375 19.864 11.375 20.3125C11.375 20.761 11.011 21.125 10.5625 21.125Z" fill="black"/>
<path id="Vector_7" d="M10.5625 26H0.8125C0.364 26 0 25.636 0 25.1875C0 24.739 0.364 24.375 0.8125 24.375H10.5625C11.011 24.375 11.375 24.739 11.375 25.1875C11.375 25.636 11.011 26 10.5625 26Z" fill="black"/>
<path id="Vector_8" d="M22.75 30.875H17.0625C16.614 30.875 16.25 30.511 16.25 30.0625C16.25 29.614 16.614 29.25 17.0625 29.25H22.1016L25.7936 13H7.3125C6.864 13 6.5 12.636 6.5 12.1875C6.5 11.739 6.864 11.375 7.3125 11.375H26.8125C27.0595 11.375 27.2935 11.4871 27.4479 11.6805C27.6023 11.8723 27.6608 12.1258 27.6055 12.3663L23.543 30.2413C23.4585 30.6134 23.1286 30.875 22.75 30.875Z" fill="black"/>
</g>
<defs>
<clipPath id="clip0">
<rect width="39" height="39" fill="white"/>
</clipPath>
</defs>
</svg>
