<svg width="113" height="21" viewBox="0 0 113 21" fill="none" xmlns="http://www.w3.org/2000/svg">
<path d="M9.21894 2.92705C9.5183 2.00574 10.8217 2.00574 11.1211 2.92705L12.2288 6.33631C12.3627 6.74834 12.7466 7.0273 13.1798 7.0273H16.7646C17.7333 7.0273 18.1361 8.26691 17.3523 8.83631L14.4523 10.9434C14.1018 11.198 13.9551 11.6494 14.089 12.0614L15.1967 15.4706C15.4961 16.392 14.4416 17.1581 13.6579 16.5887L10.7578 14.4816C10.4073 14.227 9.9327 14.227 9.58221 14.4816L6.68212 16.5887C5.89841 17.1581 4.84393 16.392 5.14328 15.4707L6.25102 12.0614C6.38489 11.6494 6.23823 11.198 5.88775 10.9434L2.98766 8.83632C2.20394 8.26691 2.60671 7.0273 3.57544 7.0273H7.16015C7.59338 7.0273 7.97733 6.74834 8.11121 6.33631L9.21894 2.92705Z" fill="#E28800"/>
<path d="M32.3839 2.92705C32.6833 2.00574 33.9867 2.00574 34.286 2.92705L35.3938 6.33631C35.5276 6.74834 35.9116 7.0273 36.3448 7.0273H39.9295C40.8983 7.0273 41.301 8.26691 40.5173 8.83631L37.6172 10.9434C37.2667 11.198 37.1201 11.6494 37.254 12.0614L38.3617 15.4706C38.661 16.392 37.6066 17.1581 36.8229 16.5887L33.9228 14.4816C33.5723 14.227 33.0977 14.227 32.7472 14.4816L29.8471 16.5887C29.0634 17.1581 28.0089 16.392 28.3083 15.4707L29.416 12.0614C29.5499 11.6494 29.4032 11.198 29.0527 10.9434L26.1526 8.83632C25.3689 8.26691 25.7717 7.0273 26.7404 7.0273H30.3251C30.7584 7.0273 31.1423 6.74834 31.2762 6.33631L32.3839 2.92705Z" fill="#E28800"/>
<path d="M55.549 2.92705C55.8483 2.00574 57.1517 2.00574 57.4511 2.92705L58.5588 6.33631C58.6927 6.74834 59.0766 7.0273 59.5099 7.0273H63.0946C64.0633 7.0273 64.4661 8.26691 63.6824 8.83631L60.7823 10.9434C60.4318 11.198 60.2851 11.6494 60.419 12.0614L61.5267 15.4706C61.8261 16.392 60.7716 17.1581 59.9879 16.5887L57.0878 14.4816C56.7373 14.227 56.2627 14.227 55.9122 14.4816L53.0121 16.5887C52.2284 17.1581 51.1739 16.392 51.4733 15.4707L52.581 12.0614C52.7149 11.6494 52.5683 11.198 52.2178 10.9434L49.3177 8.83632C48.534 8.26691 48.9367 7.0273 49.9055 7.0273H53.4902C53.9234 7.0273 54.3073 6.74834 54.4412 6.33631L55.549 2.92705Z" fill="#E28800"/>
<path d="M79.1895 3.08156C79.3391 2.6209 79.9908 2.62091 80.1405 3.08156L81.2483 6.49082C81.4491 7.10886 82.025 7.5273 82.6748 7.5273H86.2596C86.7439 7.5273 86.9453 8.14711 86.5535 8.4318L83.6534 10.5388C83.1276 10.9208 82.9076 11.5979 83.1084 12.2159L84.2162 15.6252C84.3659 16.0858 83.8386 16.4689 83.4468 16.1842L80.5467 14.0771C80.0209 13.6952 79.309 13.6952 78.7833 14.0771L75.8832 16.1842C75.4914 16.4689 74.9641 16.0858 75.1138 15.6252L76.2215 12.2159C76.4224 11.5979 76.2024 10.9208 75.6766 10.5388L72.7765 8.43181C72.3847 8.1471 72.5861 7.5273 73.0704 7.5273H76.6551C77.305 7.5273 77.8809 7.10886 78.0817 6.49082L79.1895 3.08156Z" stroke="#8D8D8D"/>
<path d="M102.355 3.08156C102.504 2.6209 103.156 2.62091 103.306 3.08156L104.413 6.49082C104.614 7.10886 105.19 7.5273 105.84 7.5273H109.425C109.909 7.5273 110.11 8.14711 109.718 8.4318L106.818 10.5388C106.293 10.9208 106.073 11.5979 106.273 12.2159L107.381 15.6252C107.531 16.0858 107.004 16.4689 106.612 16.1842L103.712 14.0771C103.186 13.6952 102.474 13.6952 101.948 14.0771L99.0483 16.1842C98.6564 16.4689 98.1292 16.0858 98.2788 15.6252L99.3866 12.2159C99.5874 11.5979 99.3674 10.9208 98.8417 10.5388L95.9416 8.43181C95.5497 8.1471 95.7511 7.5273 96.2355 7.5273H99.8202C100.47 7.5273 101.046 7.10886 101.247 6.49082L102.355 3.08156Z" stroke="#8D8D8D"/>
</svg>
