<svg width="31" height="31" viewBox="0 0 31 31" fill="none" xmlns="http://www.w3.org/2000/svg">
<g id="Heart">
<g id="Iconly/Light-Outline/Heart">
<g id="Heart_2">
<path id="Combined-Shape" fill-rule="evenodd" clip-rule="evenodd" d="M15.8036 3.92554C17.9039 2.5977 20.6939 2.23087 23.1041 3.00329C28.347 4.69408 29.9745 10.4097 28.5188 14.9577C26.2726 22.1006 16.6794 27.4287 16.2725 27.6522C16.1279 27.7322 15.9677 27.7723 15.8075 27.7723C15.6474 27.7723 15.4885 27.7335 15.3438 27.6547C14.9395 27.4339 5.41607 22.1845 3.09494 14.959C3.09365 14.959 3.09365 14.9577 3.09365 14.9577C1.63665 10.4084 3.25898 4.6915 8.49669 3.00329C10.956 2.20762 13.6362 2.55766 15.8036 3.92554ZM9.09086 4.84779C4.8529 6.21437 3.78857 10.7727 4.93944 14.3674C6.75036 20.0016 13.9049 24.5573 15.8062 25.685C17.714 24.5457 24.9202 19.9396 26.673 14.3725C27.8239 10.774 26.7557 6.21566 22.5113 4.84779C20.4549 4.18775 18.0563 4.58945 16.4004 5.87079C16.0542 6.13687 15.5737 6.14204 15.225 5.87854C13.4709 4.55975 11.1795 4.17354 9.09086 4.84779ZM20.6771 9.25741C22.4376 9.82703 22.953 10.5255 23.1041 12.3687C23.1041 12.8428 24.0061 12.3687 23.5731 12.5938C23.546 12.5963 23.2773 12.5938 23.2502 12.5938C22.7503 12.5938 22.9689 11.7585 22.9276 11.2521C22.8423 10.1904 21.6885 9.5842 20.6771 9.25741C20.1669 9.09208 20.3442 9.04183 20.0213 9.04183C20.3442 9.04183 20.1656 9.09724 20.6771 9.25741Z" fill="#666666"/>
</g>
</g>
</g>
</svg>
