<svg width="49" height="49" viewBox="0 0 49 49" fill="none" xmlns="http://www.w3.org/2000/svg">
<path fill-rule="evenodd" clip-rule="evenodd" d="M24.7512 8.47374C28.0032 6.41774 32.3232 5.84974 36.0552 7.04574C44.1732 9.66374 46.6932 18.5137 44.4392 25.5557C40.9612 36.6157 26.1072 44.8657 25.4772 45.2117C25.2532 45.3357 25.0052 45.3977 24.7572 45.3977C24.5092 45.3977 24.2632 45.3377 24.0392 45.2157C23.4132 44.8737 8.66716 36.7457 5.07316 25.5577C5.07116 25.5577 5.07116 25.5557 5.07116 25.5557C2.81516 18.5117 5.32716 9.65974 13.4372 7.04574C17.2452 5.81374 21.3952 6.35574 24.7512 8.47374ZM14.3572 9.90174C7.79516 12.0177 6.14716 19.0757 7.92916 24.6417C10.7332 33.3657 21.8112 40.4197 24.7552 42.1657C27.7092 40.4017 38.8672 33.2697 41.5812 24.6497C43.3632 19.0777 41.7092 12.0197 35.1372 9.90174C31.9532 8.87974 28.2392 9.50174 25.6752 11.4857C25.1392 11.8977 24.3952 11.9057 23.8552 11.4977C21.1392 9.45574 17.5912 8.85774 14.3572 9.90174ZM33.2172 13.8735C35.9432 14.7555 37.8532 17.1695 38.0872 20.0235C38.1532 20.8495 37.5392 21.5735 36.7132 21.6395C36.6712 21.6435 36.6312 21.6455 36.5892 21.6455C35.8152 21.6455 35.1592 21.0515 35.0952 20.2675C34.9632 18.6235 33.8632 17.2355 32.2972 16.7295C31.5072 16.4735 31.0752 15.6275 31.3292 14.8415C31.5872 14.0535 32.4252 13.6255 33.2172 13.8735Z" fill="white"/>
</svg>
