<svg width="409" height="467" viewBox="0 0 409 467" fill="none" xmlns="http://www.w3.org/2000/svg">
<path d="M204.5 0C123.956 0 58.4286 65.4676 58.4286 145.938V189.719H36.5179C26.8363 189.73 17.5546 193.578 10.7086 200.418C3.86273 207.257 0.011597 216.53 0 226.203L0 430.516C0 450.626 16.3892 467 36.5179 467H372.482C392.611 467 409 450.626 409 430.516V226.203C409 206.093 392.611 189.719 372.482 189.719H350.571V145.938C350.571 65.4676 285.044 0 204.5 0ZM73.0357 145.938C73.0357 73.5233 132.019 14.5938 204.5 14.5938C276.981 14.5938 335.964 73.5233 335.964 145.938V189.719H292.143V145.938C292.143 97.6468 252.835 58.375 204.5 58.375C156.165 58.375 116.857 97.6468 116.857 145.938V189.719H73.0357V145.938ZM277.536 189.719H131.464V145.938C131.464 105.703 164.228 72.9688 204.5 72.9688C244.772 72.9688 277.536 105.703 277.536 145.938V189.719ZM179.566 306.469L106.53 379.438H39.5415L112.577 306.469H179.566ZM267.208 306.469L194.173 379.438H127.184L200.22 306.469H267.208ZM354.851 306.469L281.816 379.438H214.827L287.863 306.469H354.851ZM394.393 306.469V379.438H302.47L375.506 306.469H394.393ZM18.887 379.438H14.6071V306.469H91.9228L18.887 379.438V379.438ZM372.482 452.406H36.5179C24.4377 452.406 14.6071 442.585 14.6071 430.516V394.031H394.393V430.516C394.393 442.585 384.562 452.406 372.482 452.406ZM394.393 226.203V291.875H14.6071V226.203C14.6071 214.134 24.4377 204.312 36.5179 204.312H372.482C384.562 204.312 394.393 214.134 394.393 226.203Z" fill="white"/>
</svg>
