<svg width="39" height="39" viewBox="0 0 39 39" fill="none" xmlns="http://www.w3.org/2000/svg">
<g id="medal" opacity="0.9" clip-path="url(#clip0)">
<g id="Group">
<path id="Vector" d="M29.0877 17.0037C29.3972 17.0667 29.6988 16.8672 29.7621 16.5572C29.9033 15.8651 29.9749 15.1529 29.9749 14.4402C29.9749 8.64691 25.2758 3.93362 19.4999 3.93362C13.7239 3.93362 9.0249 8.64691 9.0249 14.4402C9.0249 20.2335 13.7239 24.9468 19.4999 24.9468C23.4368 24.9468 27.0054 22.7656 28.813 19.2544C28.9577 18.9731 28.8478 18.6274 28.5674 18.4822C28.2871 18.3369 27.9424 18.4473 27.7976 18.7284C26.187 21.857 23.0075 23.8006 19.5 23.8006C14.3541 23.8006 10.1677 19.6015 10.1677 14.4401C10.1677 9.27876 14.3541 5.0797 19.5 5.0797C24.6458 5.0797 28.8322 9.27876 28.8322 14.4401C28.8322 15.0757 28.7685 15.7106 28.6426 16.3272C28.5793 16.6374 28.7787 16.9402 29.0877 17.0037Z" fill="black"/>
<path id="Vector_2" d="M25.8569 12.3088C25.7896 12.1009 25.6103 11.9496 25.3946 11.9186L21.6708 11.3836L20.0128 7.99665C19.8234 7.57575 19.1763 7.57582 18.987 7.99665L17.329 11.3835L13.6053 11.9186C13.1471 11.9692 12.948 12.5868 13.2883 12.897L15.9873 15.5252L15.3439 19.2427C15.2503 19.694 15.7731 20.0766 16.1737 19.8475L19.4999 18.0849L22.8261 19.8475C23.2261 20.0766 23.7497 19.694 23.6559 19.2427L23.0125 15.5252L25.7115 12.897C25.8679 12.7448 25.9243 12.5167 25.8569 12.3088ZM21.9999 14.9139C21.8644 15.0458 21.8027 15.2363 21.8349 15.4231L22.331 18.2889L19.7668 16.9301C19.5998 16.8416 19.3999 16.8416 19.233 16.9301L16.6688 18.2889L17.1648 15.4231C17.1971 15.2363 17.1353 15.0458 16.9998 14.9139L14.919 12.8877L17.7898 12.4751C17.9767 12.4483 18.1384 12.3305 18.2216 12.1604L19.4998 9.54946L20.778 12.1604C20.8613 12.3305 21.0229 12.4483 21.2099 12.4751L24.0806 12.8877L21.9999 14.9139Z" fill="black"/>
<path id="Vector_3" d="M35.534 34.0649L29.9495 24.363C32.3948 21.7737 33.8969 18.2797 33.8969 14.4402C33.8968 6.47781 27.4385 0 19.5 0C17.0576 0 14.6446 0.624766 12.5218 1.8068C12.2459 1.96046 12.1464 2.3093 12.2996 2.58606C12.4527 2.86268 12.8005 2.96248 13.0764 2.80897C15.0299 1.72117 17.2512 1.14623 19.5 1.14623C26.8084 1.14623 32.7541 7.10996 32.7541 14.4402C32.7541 21.7706 26.8084 27.7343 19.5 27.7343C12.1917 27.7343 6.24602 21.7706 6.24602 14.4402C6.24602 10.5077 7.96826 6.79845 10.9713 4.26374C11.2127 4.05995 11.2437 3.69839 11.0405 3.45629C10.8373 3.21411 10.4769 3.18287 10.2355 3.38681C6.97394 6.13979 5.10329 10.1686 5.10329 14.4402C5.10329 18.2863 6.6104 21.7858 9.06307 24.3764L7.48146 27.124C7.10245 27.7602 8.10531 28.3483 8.47106 27.6971L9.90884 25.1994C11.6289 26.7437 13.72 27.8798 16.0297 28.4554L11.0993 37.0208L9.83806 33.0395C9.7487 32.7572 9.45952 32.5899 9.17109 32.6532L5.10291 33.5484L7.13773 30.0133C7.2955 29.7392 7.20187 29.3887 6.92861 29.2305C6.65527 29.0722 6.3059 29.1661 6.14813 29.4402L3.46592 34.0999C3.21147 34.5092 3.61554 35.0654 4.08315 34.9463L8.90674 33.8849L10.4021 38.6055C10.5328 39.0699 11.2131 39.1456 11.4415 38.7185L17.2099 28.697C17.9558 28.8172 18.7205 28.8805 19.4998 28.8805C20.2855 28.8805 21.0563 28.816 21.8081 28.694L25.2726 34.7129C25.3784 34.8968 25.5705 34.9995 25.768 34.9995C25.8649 34.9995 25.9631 34.9747 26.0531 34.9226C26.3264 34.7643 26.42 34.4139 26.2622 34.1398L22.9878 28.451C25.2965 27.8726 27.3861 26.7339 29.1043 25.1875L33.8968 33.5134L29.8286 32.6183C29.5402 32.5548 29.2511 32.7222 29.1616 33.0045L27.9004 36.9858L27.5954 36.4559C27.4376 36.1818 27.0882 36.088 26.8149 36.2462C26.5417 36.4045 26.448 36.7549 26.6058 37.029L27.5582 38.6836C27.7866 39.1108 28.4668 39.035 28.5975 38.5706L30.0929 33.85L34.9165 34.9114C35.3845 35.0301 35.7883 34.4743 35.534 34.0649Z" fill="black"/>
</g>
</g>
<defs>
<clipPath id="clip0">
<rect width="39" height="39" fill="white"/>
</clipPath>
</defs>
</svg>
