<svg width="28" height="26" viewBox="0 0 28 26" fill="none" xmlns="http://www.w3.org/2000/svg">
<g id="Send">
<g id="Iconly/Bold/Send">
<g id="Send_2">
<path id="Vector" d="M25.0079 2.79699C24.4243 2.24082 23.5607 2.03362 22.7553 2.25172L3.97598 7.32265C3.12629 7.54185 2.52405 8.17108 2.36181 8.97044C2.19608 9.78397 2.77498 10.8167 3.53129 11.2485L9.4032 14.5997C10.0054 14.9432 10.7828 14.8571 11.2811 14.3903L18.0051 8.10783C18.3435 7.78067 18.9038 7.78067 19.2422 8.10783C19.5807 8.42408 19.5807 8.93663 19.2422 9.26379L12.5066 15.5474C12.0071 16.013 11.9137 16.7382 12.2814 17.3009L15.8692 22.8081C16.2894 23.4624 17.013 23.8332 17.8066 23.8332C17.9 23.8332 18.0051 23.8332 18.0984 23.8223C19.0088 23.7132 19.7324 23.1352 20.0009 22.3173L25.5681 4.90169C25.8132 4.16014 25.5915 3.35315 25.0079 2.79699Z" fill="white"/>
</g>
</g>
</g>
</svg>
