<svg width="512" height="512" viewBox="0 0 512 512" fill="none" xmlns="http://www.w3.org/2000/svg">
<g id="shopping-bag 2" clip-path="url(#clip0)">
<path id="Vector" d="M478.054 495.171L439.14 124.597C438.324 116.84 431.785 110.949 423.984 110.949H350.843V94.2733C350.843 42.2929 308.55 0 256.57 0C204.586 0 162.293 42.2929 162.293 94.2733V110.949H89.1524C81.3517 110.949 74.8126 116.84 73.9962 124.597L35.0822 495.171C34.633 499.464 36.0276 503.749 38.9143 506.96C41.8049 510.167 45.9221 511.999 50.2385 511.999H462.894C467.214 511.999 471.331 510.167 474.218 506.96C477.113 503.749 478.503 499.464 478.054 495.171ZM192.769 94.2733C192.769 59.0975 221.39 30.4765 256.57 30.4765C291.746 30.4765 320.367 59.0975 320.367 94.2733V110.949H192.769V94.2733ZM67.1603 481.522L102.875 141.426H162.293V175.007C162.293 183.422 169.117 190.246 177.531 190.246C185.945 190.246 192.769 183.422 192.769 175.007V141.426H320.367V175.007C320.367 183.422 327.191 190.246 335.605 190.246C344.019 190.246 350.843 183.422 350.843 175.007V141.426H410.261L445.976 481.522H67.1603Z" fill="white"/>
</g>
<defs>
<clipPath id="clip0">
<rect width="512" height="512" fill="white"/>
</clipPath>
</defs>
</svg>
