<svg width="16" height="15" viewBox="0 0 16 15" fill="none" xmlns="http://www.w3.org/2000/svg">
<path d="M7.18947 1.08156C7.33914 0.620903 7.99085 0.620908 8.14052 1.08156L9.24826 4.49082C9.44907 5.10886 10.025 5.5273 10.6748 5.5273H14.2596C14.7439 5.5273 14.9453 6.14711 14.5535 6.4318L11.6534 8.53885C11.1276 8.92081 10.9076 9.59786 11.1084 10.2159L12.2162 13.6252C12.3659 14.0858 11.8386 14.4689 11.4468 14.1842L8.54667 12.0771C8.02094 11.6952 7.30905 11.6952 6.78332 12.0771L3.88323 14.1842C3.49137 14.4689 2.96413 14.0858 3.1138 13.6252L4.22154 10.2159C4.42235 9.59787 4.20236 8.92081 3.67663 8.53885L0.776543 6.43181C0.384683 6.1471 0.586076 5.5273 1.07043 5.5273H4.65515C5.30498 5.5273 5.88092 5.10886 6.08173 4.49082L7.18947 1.08156Z" stroke="#8D8D8D"/>
</svg>
