<svg width="17" height="15" viewBox="0 0 17 15" fill="none" xmlns="http://www.w3.org/2000/svg">
<path d="M7.54896 0.927053C7.84831 0.00574255 9.15172 0.00574017 9.45107 0.927051L10.5588 4.33631C10.6927 4.74834 11.0766 5.0273 11.5099 5.0273H15.0946C16.0633 5.0273 16.4661 6.26691 15.6824 6.83631L12.7823 8.94335C12.4318 9.198 12.2851 9.64937 12.419 10.0614L13.5267 13.4706C13.8261 14.392 12.7716 15.1581 11.9879 14.5887L9.0878 12.4816C8.73732 12.227 8.26272 12.227 7.91223 12.4816L5.01214 14.5887C4.22843 15.1581 3.17395 14.392 3.4733 13.4707L4.58103 10.0614C4.71491 9.64937 4.56825 9.198 4.21776 8.94336L1.31767 6.83632C0.533959 6.26691 0.936732 5.0273 1.90546 5.0273H5.49017C5.92339 5.0273 6.30735 4.74834 6.44122 4.33631L7.54896 0.927053Z" fill="#E28800"/>
</svg>
