<svg width="461" height="461" viewBox="0 0 461 461" fill="none" xmlns="http://www.w3.org/2000/svg">
<path d="M230.5 350.744C239.906 350.744 247.532 343.119 247.532 333.713C247.532 324.307 239.906 316.681 230.5 316.681C221.094 316.681 213.469 324.307 213.469 333.713C213.469 343.119 221.094 350.744 230.5 350.744Z" fill="white"/>
<path d="M230.5 289.534C227.104 289.534 223.846 288.184 221.445 285.783C219.043 283.381 217.694 280.124 217.694 276.728V123.061C217.694 119.665 219.043 116.408 221.445 114.007C223.846 111.605 227.104 110.256 230.5 110.256C233.896 110.256 237.153 111.605 239.555 114.007C241.956 116.408 243.305 119.665 243.305 123.061V276.728C243.305 280.124 241.956 283.381 239.555 285.783C237.153 288.184 233.896 289.534 230.5 289.534Z" fill="white"/>
<path d="M192.877 21.5261C196.436 15.0485 201.671 9.64623 208.033 5.8843C214.394 2.12236 221.65 0.138986 229.041 0.141604C236.432 0.144222 243.687 2.13274 250.046 5.89918C256.405 9.66562 261.636 15.0716 265.19 21.5517L443.059 348.862C446.471 355.142 448.191 362.201 448.052 369.346C447.913 376.491 445.92 383.478 442.267 389.62C438.614 395.763 433.427 400.851 427.215 404.384C421.003 407.918 413.979 409.777 406.833 409.778H51.504C44.2769 409.94 37.1343 408.198 30.7923 404.729C24.4503 401.26 19.1319 396.184 15.3702 390.011C11.6085 383.838 9.5358 376.784 9.35987 369.558C9.18395 362.331 10.911 355.185 14.3679 348.836L192.877 21.5261V21.5261ZM36.88 361.091C35.5607 363.517 34.9077 366.248 34.9876 369.008C35.0676 371.768 35.8776 374.458 37.3351 376.803C38.7927 379.148 40.8457 381.065 43.2852 382.359C45.7246 383.652 48.4633 384.276 51.2222 384.167H406.833C409.541 384.165 412.202 383.46 414.555 382.12C416.908 380.78 418.873 378.851 420.256 376.523C421.639 374.194 422.393 371.547 422.444 368.839C422.495 366.131 421.841 363.457 420.547 361.078L242.717 33.8322C241.369 31.3835 239.388 29.3413 236.982 27.9185C234.576 26.4957 231.833 25.7445 229.038 25.7432C226.242 25.7419 223.498 26.4906 221.091 27.9111C218.683 29.3316 216.701 31.372 215.351 33.8194L36.8672 361.091H36.88Z" fill="white"/>
</svg>
